<mxfile host="app.diagrams.net" modified="2024-04-25T03:12:17.681Z" agent="Mozilla/5.0 (Windows NT 10.0; Win64; x64) AppleWebKit/537.36 (KHTML, like Gecko) Chrome/124.0.0.0 Safari/537.36" etag="XgqkPbSnsBX0g5QfB9nN" version="24.2.7" type="device">
  <diagram name="Página-1" id="dB7JqkXyVcTINC_SE0mV">
    <mxGraphModel dx="1434" dy="1915" grid="1" gridSize="10" guides="1" tooltips="1" connect="1" arrows="1" fold="1" page="1" pageScale="1" pageWidth="827" pageHeight="1169" math="0" shadow="0">
      <root>
        <mxCell id="0" />
        <mxCell id="1" parent="0" />
        <mxCell id="V6N0SOcj93QmPqJnqtqw-1" value="" style="shape=image;verticalLabelPosition=bottom;labelBackgroundColor=default;verticalAlign=top;aspect=fixed;imageAspect=0;image=https://www.aviator.co/blog/wp-content/uploads/2023/01/terraform.png;" vertex="1" parent="1">
          <mxGeometry x="70" y="-1080" width="106.64" height="80" as="geometry" />
        </mxCell>
        <mxCell id="V6N0SOcj93QmPqJnqtqw-2" value="" style="ellipse;shape=cloud;whiteSpace=wrap;html=1;" vertex="1" parent="1">
          <mxGeometry x="260" y="-1155" width="345" height="230" as="geometry" />
        </mxCell>
        <mxCell id="V6N0SOcj93QmPqJnqtqw-4" value="Instancia-1&lt;div&gt;&lt;br&gt;&lt;/div&gt;" style="html=1;whiteSpace=wrap;verticalAlign=top;" vertex="1" parent="1">
          <mxGeometry x="390" y="-1090" width="100" height="30" as="geometry" />
        </mxCell>
        <mxCell id="V6N0SOcj93QmPqJnqtqw-5" value="Instancia-2&lt;div&gt;&lt;br&gt;&lt;/div&gt;" style="html=1;whiteSpace=wrap;verticalAlign=top;" vertex="1" parent="1">
          <mxGeometry x="390" y="-1050" width="100" height="30" as="geometry" />
        </mxCell>
        <mxCell id="V6N0SOcj93QmPqJnqtqw-6" value="Instancia-3" style="html=1;whiteSpace=wrap;verticalAlign=top;" vertex="1" parent="1">
          <mxGeometry x="390" y="-1010" width="100" height="30" as="geometry" />
        </mxCell>
        <mxCell id="V6N0SOcj93QmPqJnqtqw-7" value="" style="endArrow=classic;html=1;rounded=0;exitX=1;exitY=0.5;exitDx=0;exitDy=0;entryX=0.09;entryY=0.5;entryDx=0;entryDy=0;entryPerimeter=0;" edge="1" parent="1" source="V6N0SOcj93QmPqJnqtqw-1" target="V6N0SOcj93QmPqJnqtqw-2">
          <mxGeometry width="50" height="50" relative="1" as="geometry">
            <mxPoint x="360" y="-1090" as="sourcePoint" />
            <mxPoint x="410" y="-1140" as="targetPoint" />
          </mxGeometry>
        </mxCell>
        <mxCell id="V6N0SOcj93QmPqJnqtqw-8" value="Terraform apply" style="text;html=1;align=center;verticalAlign=middle;whiteSpace=wrap;rounded=0;" vertex="1" parent="1">
          <mxGeometry x="170" y="-1070" width="110" height="30" as="geometry" />
        </mxCell>
        <mxCell id="V6N0SOcj93QmPqJnqtqw-9" value="&lt;b style=&quot;font-size: 28px;&quot;&gt;1°&lt;/b&gt;" style="text;html=1;align=center;verticalAlign=middle;whiteSpace=wrap;rounded=0;fontSize=28;" vertex="1" parent="1">
          <mxGeometry x="50" y="-1140" width="60" height="40" as="geometry" />
        </mxCell>
        <mxCell id="V6N0SOcj93QmPqJnqtqw-10" value="Creacion de las instancias con terraform" style="text;html=1;align=center;verticalAlign=middle;whiteSpace=wrap;rounded=0;" vertex="1" parent="1">
          <mxGeometry x="70" y="-970" width="230" height="30" as="geometry" />
        </mxCell>
        <mxCell id="V6N0SOcj93QmPqJnqtqw-11" value="" style="shape=image;verticalLabelPosition=bottom;labelBackgroundColor=default;verticalAlign=top;aspect=fixed;imageAspect=0;image=https://www.aviator.co/blog/wp-content/uploads/2023/01/terraform.png;" vertex="1" parent="1">
          <mxGeometry x="70" y="-850" width="106.64" height="80" as="geometry" />
        </mxCell>
        <mxCell id="V6N0SOcj93QmPqJnqtqw-12" value="" style="ellipse;shape=cloud;whiteSpace=wrap;html=1;" vertex="1" parent="1">
          <mxGeometry x="260" y="-925" width="345" height="230" as="geometry" />
        </mxCell>
        <mxCell id="V6N0SOcj93QmPqJnqtqw-13" value="Instancia-1&lt;div&gt;&lt;br&gt;&lt;/div&gt;" style="html=1;whiteSpace=wrap;verticalAlign=top;" vertex="1" parent="1">
          <mxGeometry x="390" y="-860" width="100" height="30" as="geometry" />
        </mxCell>
        <mxCell id="V6N0SOcj93QmPqJnqtqw-14" value="Instancia-2&lt;div&gt;&lt;br&gt;&lt;/div&gt;" style="html=1;whiteSpace=wrap;verticalAlign=top;" vertex="1" parent="1">
          <mxGeometry x="390" y="-820" width="100" height="30" as="geometry" />
        </mxCell>
        <mxCell id="V6N0SOcj93QmPqJnqtqw-15" value="Instancia-3" style="html=1;whiteSpace=wrap;verticalAlign=top;" vertex="1" parent="1">
          <mxGeometry x="390" y="-780" width="100" height="30" as="geometry" />
        </mxCell>
        <mxCell id="V6N0SOcj93QmPqJnqtqw-18" value="&lt;b style=&quot;font-size: 28px;&quot;&gt;2°&lt;/b&gt;" style="text;html=1;align=center;verticalAlign=middle;whiteSpace=wrap;rounded=0;fontSize=28;" vertex="1" parent="1">
          <mxGeometry x="50" y="-910" width="60" height="40" as="geometry" />
        </mxCell>
        <mxCell id="V6N0SOcj93QmPqJnqtqw-19" value="Eliminacion de la instacia-2" style="text;html=1;align=center;verticalAlign=middle;whiteSpace=wrap;rounded=0;" vertex="1" parent="1">
          <mxGeometry x="70" y="-740" width="230" height="30" as="geometry" />
        </mxCell>
        <mxCell id="V6N0SOcj93QmPqJnqtqw-21" value="" style="shape=image;html=1;verticalAlign=top;verticalLabelPosition=bottom;labelBackgroundColor=#ffffff;imageAspect=0;aspect=fixed;image=https://cdn4.iconfinder.com/data/icons/scripting-and-programming-languages/512/660277-Python_logo-128.png" vertex="1" parent="1">
          <mxGeometry x="750" y="-874" width="128" height="128" as="geometry" />
        </mxCell>
        <mxCell id="V6N0SOcj93QmPqJnqtqw-22" value="" style="endArrow=classic;html=1;rounded=0;exitX=0;exitY=0.5;exitDx=0;exitDy=0;entryX=0.875;entryY=0.5;entryDx=0;entryDy=0;entryPerimeter=0;" edge="1" parent="1" source="V6N0SOcj93QmPqJnqtqw-21" target="V6N0SOcj93QmPqJnqtqw-12">
          <mxGeometry width="50" height="50" relative="1" as="geometry">
            <mxPoint x="360" y="-790" as="sourcePoint" />
            <mxPoint x="410" y="-840" as="targetPoint" />
          </mxGeometry>
        </mxCell>
        <mxCell id="V6N0SOcj93QmPqJnqtqw-23" value="Eliminar_instancia(instancia-2)" style="text;html=1;align=center;verticalAlign=middle;whiteSpace=wrap;rounded=0;" vertex="1" parent="1">
          <mxGeometry x="580" y="-840" width="170" height="30" as="geometry" />
        </mxCell>
        <mxCell id="V6N0SOcj93QmPqJnqtqw-26" value="" style="verticalLabelPosition=bottom;verticalAlign=top;html=1;shape=mxgraph.basic.x" vertex="1" parent="1">
          <mxGeometry x="420" y="-825" width="40" height="40" as="geometry" />
        </mxCell>
        <mxCell id="V6N0SOcj93QmPqJnqtqw-27" value="" style="shape=image;verticalLabelPosition=bottom;labelBackgroundColor=default;verticalAlign=top;aspect=fixed;imageAspect=0;image=https://www.aviator.co/blog/wp-content/uploads/2023/01/terraform.png;" vertex="1" parent="1">
          <mxGeometry x="70" y="-605" width="106.64" height="80" as="geometry" />
        </mxCell>
        <mxCell id="V6N0SOcj93QmPqJnqtqw-33" value="Terraform show" style="text;html=1;align=center;verticalAlign=middle;whiteSpace=wrap;rounded=0;" vertex="1" parent="1">
          <mxGeometry x="70" y="-520" width="110" height="30" as="geometry" />
        </mxCell>
        <mxCell id="V6N0SOcj93QmPqJnqtqw-34" value="&lt;b style=&quot;font-size: 28px;&quot;&gt;3°&lt;/b&gt;" style="text;html=1;align=center;verticalAlign=middle;whiteSpace=wrap;rounded=0;fontSize=28;" vertex="1" parent="1">
          <mxGeometry x="50" y="-665" width="60" height="40" as="geometry" />
        </mxCell>
        <mxCell id="V6N0SOcj93QmPqJnqtqw-35" value="Terraform piensa que las 3 instancias todavía existen, pero en realidad solamente hay 2" style="text;html=1;align=center;verticalAlign=middle;whiteSpace=wrap;rounded=0;" vertex="1" parent="1">
          <mxGeometry x="258.75" y="-450" width="362.5" height="30" as="geometry" />
        </mxCell>
        <mxCell id="V6N0SOcj93QmPqJnqtqw-36" value="Instancias:&lt;br&gt;instancia-1&lt;div&gt;instancia-2&lt;/div&gt;&lt;div&gt;instancia-3&lt;/div&gt;" style="text;html=1;align=center;verticalAlign=middle;whiteSpace=wrap;rounded=0;" vertex="1" parent="1">
          <mxGeometry x="70" y="-480" width="110" height="30" as="geometry" />
        </mxCell>
        <mxCell id="V6N0SOcj93QmPqJnqtqw-37" value="" style="shape=image;verticalLabelPosition=bottom;labelBackgroundColor=default;verticalAlign=top;aspect=fixed;imageAspect=0;image=https://www.aviator.co/blog/wp-content/uploads/2023/01/terraform.png;" vertex="1" parent="1">
          <mxGeometry x="70" y="-315" width="106.64" height="80" as="geometry" />
        </mxCell>
        <mxCell id="V6N0SOcj93QmPqJnqtqw-41" value="" style="endArrow=classic;html=1;rounded=0;exitX=1;exitY=0.5;exitDx=0;exitDy=0;entryX=0.09;entryY=0.5;entryDx=0;entryDy=0;entryPerimeter=0;" edge="1" parent="1" source="V6N0SOcj93QmPqJnqtqw-37">
          <mxGeometry width="50" height="50" relative="1" as="geometry">
            <mxPoint x="360" y="-325" as="sourcePoint" />
            <mxPoint x="291.04999999999995" y="-275" as="targetPoint" />
          </mxGeometry>
        </mxCell>
        <mxCell id="V6N0SOcj93QmPqJnqtqw-42" value="Terraform apply" style="text;html=1;align=center;verticalAlign=middle;whiteSpace=wrap;rounded=0;" vertex="1" parent="1">
          <mxGeometry x="170" y="-300" width="110" height="30" as="geometry" />
        </mxCell>
        <mxCell id="V6N0SOcj93QmPqJnqtqw-43" value="&lt;b style=&quot;font-size: 28px;&quot;&gt;4°&lt;/b&gt;" style="text;html=1;align=center;verticalAlign=middle;whiteSpace=wrap;rounded=0;fontSize=28;" vertex="1" parent="1">
          <mxGeometry x="50" y="-375" width="60" height="40" as="geometry" />
        </mxCell>
        <mxCell id="V6N0SOcj93QmPqJnqtqw-44" value="Terraform genera el plan comparando con su configuración y decide crear solamente la instancia 2. Se realiza el apply para realizar los cambios" style="text;html=1;align=center;verticalAlign=middle;whiteSpace=wrap;rounded=0;" vertex="1" parent="1">
          <mxGeometry x="317.5" y="-160" width="230" height="30" as="geometry" />
        </mxCell>
        <mxCell id="V6N0SOcj93QmPqJnqtqw-45" value="Plan: Crear instancia 2" style="text;html=1;align=center;verticalAlign=middle;whiteSpace=wrap;rounded=0;" vertex="1" parent="1">
          <mxGeometry x="170" y="-265" width="110" height="30" as="geometry" />
        </mxCell>
        <mxCell id="V6N0SOcj93QmPqJnqtqw-51" value="" style="ellipse;shape=cloud;whiteSpace=wrap;html=1;" vertex="1" parent="1">
          <mxGeometry x="260" y="-680" width="345" height="230" as="geometry" />
        </mxCell>
        <mxCell id="V6N0SOcj93QmPqJnqtqw-52" value="Instancia-1&lt;div&gt;&lt;br&gt;&lt;/div&gt;" style="html=1;whiteSpace=wrap;verticalAlign=top;" vertex="1" parent="1">
          <mxGeometry x="390" y="-615" width="100" height="30" as="geometry" />
        </mxCell>
        <mxCell id="V6N0SOcj93QmPqJnqtqw-53" value="Instancia-2&lt;div&gt;&lt;br&gt;&lt;/div&gt;" style="html=1;whiteSpace=wrap;verticalAlign=top;fillColor=#f8cecc;strokeColor=none;dashed=1;" vertex="1" parent="1">
          <mxGeometry x="390" y="-575" width="100" height="30" as="geometry" />
        </mxCell>
        <mxCell id="V6N0SOcj93QmPqJnqtqw-54" value="Instancia-3" style="html=1;whiteSpace=wrap;verticalAlign=top;" vertex="1" parent="1">
          <mxGeometry x="390" y="-535" width="100" height="30" as="geometry" />
        </mxCell>
        <mxCell id="V6N0SOcj93QmPqJnqtqw-59" value="" style="shape=image;html=1;verticalAlign=top;verticalLabelPosition=bottom;labelBackgroundColor=#ffffff;imageAspect=0;aspect=fixed;image=https://cdn4.iconfinder.com/data/icons/scripting-and-programming-languages/512/660277-Python_logo-128.png" vertex="1" parent="1">
          <mxGeometry x="750" y="-629" width="128" height="128" as="geometry" />
        </mxCell>
        <mxCell id="V6N0SOcj93QmPqJnqtqw-60" value="" style="endArrow=classic;html=1;rounded=0;exitX=0;exitY=0.5;exitDx=0;exitDy=0;entryX=0.875;entryY=0.5;entryDx=0;entryDy=0;entryPerimeter=0;" edge="1" parent="1" source="V6N0SOcj93QmPqJnqtqw-59">
          <mxGeometry width="50" height="50" relative="1" as="geometry">
            <mxPoint x="360" y="-545" as="sourcePoint" />
            <mxPoint x="562" y="-565" as="targetPoint" />
          </mxGeometry>
        </mxCell>
        <mxCell id="V6N0SOcj93QmPqJnqtqw-61" value="Listar_instancias()" style="text;html=1;align=center;verticalAlign=middle;whiteSpace=wrap;rounded=0;" vertex="1" parent="1">
          <mxGeometry x="580" y="-595" width="170" height="30" as="geometry" />
        </mxCell>
        <mxCell id="V6N0SOcj93QmPqJnqtqw-62" value="" style="verticalLabelPosition=bottom;verticalAlign=top;html=1;shape=mxgraph.basic.x" vertex="1" parent="1">
          <mxGeometry x="420" y="-580" width="40" height="40" as="geometry" />
        </mxCell>
        <mxCell id="V6N0SOcj93QmPqJnqtqw-63" value="Instancias:&lt;br&gt;instancia-1&lt;div&gt;instancia-3&lt;/div&gt;" style="text;html=1;align=center;verticalAlign=middle;whiteSpace=wrap;rounded=0;" vertex="1" parent="1">
          <mxGeometry x="759" y="-520" width="110" height="30" as="geometry" />
        </mxCell>
        <mxCell id="V6N0SOcj93QmPqJnqtqw-65" value="" style="ellipse;shape=cloud;whiteSpace=wrap;html=1;" vertex="1" parent="1">
          <mxGeometry x="260" y="-400" width="345" height="230" as="geometry" />
        </mxCell>
        <mxCell id="V6N0SOcj93QmPqJnqtqw-66" value="Instancia-1&lt;div&gt;&lt;br&gt;&lt;/div&gt;" style="html=1;whiteSpace=wrap;verticalAlign=top;" vertex="1" parent="1">
          <mxGeometry x="390" y="-335" width="100" height="30" as="geometry" />
        </mxCell>
        <mxCell id="V6N0SOcj93QmPqJnqtqw-67" value="Instancia-2&lt;div&gt;&lt;br&gt;&lt;/div&gt;" style="html=1;whiteSpace=wrap;verticalAlign=top;" vertex="1" parent="1">
          <mxGeometry x="390" y="-295" width="100" height="30" as="geometry" />
        </mxCell>
        <mxCell id="V6N0SOcj93QmPqJnqtqw-68" value="Instancia-3" style="html=1;whiteSpace=wrap;verticalAlign=top;" vertex="1" parent="1">
          <mxGeometry x="390" y="-255" width="100" height="30" as="geometry" />
        </mxCell>
      </root>
    </mxGraphModel>
  </diagram>
</mxfile>
